<svg width="64" height="64" viewBox="0 0 64 64" fill="none" xmlns="http://www.w3.org/2000/svg">
<circle cx="32" cy="32" r="32" fill="#EEDD83"/>
<mask id="mask0_1344_1353" style="mask-type:alpha" maskUnits="userSpaceOnUse" x="0" y="0" width="64" height="64">
<circle cx="32" cy="32" r="32" fill="#D9D9D9"/>
</mask>
<g mask="url(#mask0_1344_1353)">
<path d="M27.7085 43.383L27.6498 43.5895L26.1776 42.4564L25.8543 42.2449L25.9329 42.2738L27.7859 42.8618L27.7085 43.383ZM29.2368 45.0135L28.5438 44.9266L28.4751 44.3185L28.2192 44.0944L28.2416 43.8363L28.2479 43.0091L28.6125 43.1249L29.3342 44.1007C29.3342 44.1007 29.3692 44.3374 29.3966 44.5526L29.2368 45.0135ZM22.4967 43.3742L23.4981 44.3903L23.5842 44.6609L22.5753 44.6785C22.5778 44.3927 22.5778 44.078 22.5791 44.005C22.5828 43.9559 22.5429 43.6852 22.4967 43.3742ZM20.9958 42.3896L20.9384 42.0396L21.9286 42.8127L21.9385 43.1614L21.6713 44.3927L21.6201 44.6962L20.9471 44.7075C20.9733 44.3688 21.0133 43.8879 21.017 43.8048C21.0233 43.6776 20.9958 42.3896 20.9958 42.3896ZM19.7722 44.049C19.7372 43.9194 19.8333 42.722 19.7959 42.5911C19.7609 42.4627 19.696 41.988 19.696 41.988L19.4787 42.1064L19.3027 43.213L18.9456 44.5262L18.8894 44.7012L16.9577 44.6345C16.9802 44.4658 16.9977 44.3147 17.0027 44.2644C17.0077 44.1359 17.0177 42.9776 17.0177 42.9776L16.919 42.3317L16.6618 42.406L16.3809 43.8917L16.1249 44.6055L15.7528 44.5917L12.5887 44.6169L12.7236 43.9383L12.6986 42.61L12.6374 42.0938L12.3802 42.1227L12.1929 43.4435L11.8058 44.6232H11.7571L11.209 44.5186C11.2602 44.2039 11.3264 43.8312 11.3264 43.8312L11.3901 42.4211L11.2877 41.8596L10.9905 41.8445L10.8519 43.0393L10.5497 44.0969L10.4386 44.3714L9.74185 44.2379L9.94039 43.4258L10.039 42.1882L9.98784 41.4554L9.73436 41.4025L9.4634 42.7183L8.98643 44.0805L8.46325 43.9244L8.63306 43.237L8.86032 41.9616L8.76792 41.1873L8.55564 41.1759L8.29468 42.2373L7.90636 43.3314L7.70158 43.6978L7.57922 43.6613L7.27081 43.3037L7.19963 42.0144L8.81662 40.0957L11.6835 37.3359L12.8734 36.8612L13.1481 37.3586L13.9498 37.4819L15.6729 36.9607L16.7117 36.3652L16.7142 37.4366L17.1338 38.5269L17.9154 39.0771L18.3412 39.9962L18.722 40.5603L19.0592 41.0588L20.2329 41.4114L20.6012 41.5096L20.7461 41.7576L20.6012 41.7286L20.4439 43.3503L20.2179 44.5829L20.1842 44.7188L19.6685 44.7277C19.7322 44.4381 19.7934 44.1158 19.7722 44.049ZM23.5093 42.2902L25.5309 43.6273L26.7745 44.7554L24.959 44.6735L24.9365 44.5426L23.7441 42.7308L23.1297 42.1882L22.9562 42.0081L23.4981 42.0321L23.5093 42.2902ZM51.5 20.0469L51.2752 19.3519L50.3575 19.0094L48.7617 18.5499L47.4582 18.2339L47.1785 17.8788L46.4767 17.418L45.5852 17.4193L44.6724 17.8486L43.8921 18.1533C43.7809 17.9619 43.5549 17.6044 43.5549 17.6044L43.0505 17.0252L42.9031 17.0176L43.2141 17.632L43.3664 18.4593L43.1117 18.6745L42.9618 18.0501L42.5598 17.5376L42.0528 17L41.903 17.0151L42.2513 17.802L42.4474 18.6468L42.5086 19.1857L42.4849 19.2058L42.4349 19.2587L42.2713 19.3141L41.9679 18.4315L41.4847 17.831L41.0602 17.3614L40.8304 17.2442L40.7805 17.4142L41.1376 17.9871L41.3261 19.0019L41.4585 19.5961L41.426 19.6062L41.1763 19.7535C41.0714 19.4866 40.8741 18.9855 40.8616 18.9377C40.8416 18.8735 40.2173 18.1155 40.2173 18.1155L39.4669 17.3526L39.2946 17.3891L39.7778 18.4391L40.0163 19.3066L40.0625 20.1224L40.1424 20.3616L39.7666 20.582L39.4544 19.9663L38.9737 19.3015L38.3619 18.7589L38.2083 18.8395L38.5691 19.7963L38.7165 20.7683L38.8014 21.078L38.5729 21.1863L38.4068 20.5618C38.4068 20.5618 38.0609 19.7321 38.0434 19.6666C38.026 19.6012 37.4354 18.5662 37.4354 18.5662L37.263 18.6027L37.6764 19.8001L37.7987 20.8766L37.8025 21.5124L37.4316 21.5489L37.1482 20.6323L36.625 19.6012L36.0843 18.8055L35.9332 18.8634L36.1792 20.0104L36.2105 21.1901L36.2055 21.6773L35.8558 21.7138L35.6423 21.0768L35.1503 19.7686L34.6034 19.1442L34.4723 19.2021L34.7433 20.3075L34.6234 21.5225L34.596 21.8447L33.7331 21.9329L33.5683 21.3676L33.1987 20.1501L32.8092 19.3834L32.6581 19.4186L32.743 20.8161L32.6606 21.7113L32.6306 22.0475L31.8777 22.1268H31.4644C31.3882 21.8221 31.2384 21.2178 31.2409 21.1536C31.2446 21.068 30.6802 19.9059 30.6802 19.9059L30.3718 19.6793L30.2819 19.7799L30.4705 21.2669L30.4642 22.1306L29.3242 22.1331L29.2156 21.2757L28.9746 20.5153L28.7836 20.5064L28.4826 22.1369H27.8696L27.8371 20.762L27.5574 19.3997L27.4113 18.8999L27.239 18.9565L27.2702 20.1363L27.1216 21.5665L27.0167 22.1406L26.2975 22.1444L26.1115 20.8552L25.7007 19.5936L25.3061 18.91L25.1962 19.0132L25.366 20.4133L25.3086 21.6748L25.2462 22.1583L24.2672 22.3484C24.2548 21.9568 24.2273 21.0503 24.2148 20.9824C24.1961 20.8955 23.9513 19.7497 23.9126 19.6616C23.8752 19.5722 23.5842 18.9175 23.5842 18.9175L23.4132 18.9515L23.5093 20.1564L23.3944 21.7365L23.2146 22.5511L22.7402 22.643L22.684 21.9191L22.4143 20.835L22.1383 20.3503L22.0084 20.4108L22.0309 21.3537L22.0109 22.2729L21.9722 22.7928L21.6264 22.8595L21.5365 21.9304C21.5365 21.9304 21.3292 20.8703 21.3117 20.806C21.293 20.7406 20.8697 19.756 20.8697 19.756L20.7311 19.5155L20.5825 19.5294L20.816 20.9534L20.7873 22.4944L20.7486 23.0295L20.3628 23.1038L20.3066 22.3458L19.8658 20.8048L19.6123 20.2999L19.4812 20.3579L19.6198 21.9921L19.5449 23.2624L19.1354 23.3418L18.3749 23.5193L18.1851 22.7412L17.8418 21.8687L17.3273 21.0314L17.195 21.1095L17.5196 22.4101L17.5159 23.7182L16.6368 23.9234L16.5469 23.2436L16.1062 21.7239L15.7053 21.1926L15.5717 21.3361L15.6292 21.9593L15.7428 23.1428L15.6991 24.1413L14.8787 24.3326L14.5566 23.5609L14.0222 22.6996L13.6114 22.3811L13.5015 22.4617L13.8911 23.2524L14.187 24.2294L14.3169 24.8425L13.9972 25.1963L13.3916 24.4283L12.8123 24.0808L12.5188 24.0027L12.4476 24.1488L12.851 24.6398L13.308 25.3235L13.5177 25.7276L12.9359 26.3685C12.796 26.2061 12.4789 25.8296 12.4801 25.7792C12.4839 25.7138 11.9382 25.0893 11.9382 25.0893L11.5898 24.7947L11.4974 24.9621L12.0144 26.2073L12.4551 26.8998L11.7571 27.6691L11.0879 26.4856L10.5884 25.3059L10.4935 25.5388L11.0055 27.3619L11.44 28.0216L10.8906 28.6272L10.476 27.8302L10.1052 26.5913L9.93539 26.133L9.80428 26.2136L10.0877 27.941L10.2863 28.743L10.4948 29.0628L10.0215 29.5866C9.8792 29.2617 9.60825 28.6511 9.612 28.6045C9.6145 28.5403 9.36851 27.3719 9.36851 27.3719L9.26238 26.896L9.13251 26.9766L9.20369 27.7497C9.20369 27.7497 9.38599 28.9142 9.40222 28.981C9.4222 29.0452 9.5583 29.7805 9.5583 29.7805L9.69066 29.9517L9.39474 30.2765L9.09756 29.652L8.80787 28.5252L8.54816 27.7194L8.39831 27.7332L8.52818 29.0691L8.81537 30.24L9.02638 30.6857L8.64431 31.1062L8.31092 30.5598L7.99501 29.6017L7.75653 28.7342L7.62542 28.8135L7.6941 30.1242L7.98377 31.2296L8.24723 31.5355L7.66163 32.1361L7.16343 31.5141L6.85625 30.8128L6.61901 30.3961L6.50539 30.5396L6.69519 31.5355L7.0011 32.2771L7.23209 32.578L6.68394 33.1395L6.3668 32.8021L6.03715 32.1411L5.82988 31.7521L5.69503 31.8226L5.75994 32.8877L6.0871 33.5487L6.16202 33.6759L4.30655 35.582L3.23271 36.4206L2.33119 37.8483L2.29249 38.0397L1.05259 39.8048L0 42.4123L0.0112335 42.5747V42.5735L0.15108 44.6912L0.603086 46.8982L1.63321 47.6738L3.63976 48.365L12.3503 49.4062L18.2738 49.0361L23.1759 48.7037L26.2326 48.8019L29.6726 48.8321L33.2037 48.778L37.7712 49.2451L41.4859 49.8431L44.3016 50.5293L45.8299 51.5L46.187 51.1311L45.2631 49.9325L44.389 49.2765H44.3903L44.1156 49.0713L44.3004 48.6873L44.4864 47.3679L44.429 46.7648L44.1767 46.7106L43.505 48.3939L43.4113 48.5438L43.3726 48.5161L42.9369 48.287L43.2028 47.5655L43.6061 46.1693L43.3152 46.0282L42.2489 47.9231L41.8243 47.699L42.0853 46.9133L42.3587 45.5549L42.109 45.4592L41.4397 47.0569L41.2687 47.4081L40.7517 47.1349L41.1176 45.7563L41.2312 45.1179L40.979 45.0626L40.2148 46.8529L39.7191 46.5923L36.9584 46.1441L37.3005 44.6383L37.2805 44.1221L36.9409 44.107L36.3141 46.0396L32.7168 45.4579L32.713 45.4554C32.8042 45.0915 32.9215 44.6509 32.9215 44.6509L33.0414 42.9424L32.7879 42.8882L32.2735 44.8787L32.0313 45.3698L31.5018 45.3018L31.7403 44.4696L31.7503 43.2697L31.6155 42.5332L31.3607 42.5231L31.1148 44.1825L30.704 45.2011L30.5791 45.1847L30.5341 44.8422L30.3181 44.2731L30.4068 43.8942L30.438 42.2222L30.3681 41.92L30.0634 42.0774L29.8874 43.1413L29.3592 42.6037L26.8956 41.5889L24.5682 40.4545L24.0362 40L23.312 39.1124L21.1469 38.1115C21.1469 38.1115 21.4366 36.3689 21.4865 36.2418C21.4965 36.2128 21.494 36.063 21.484 35.849L24.7267 36.4546L29.9773 35.9875L31.568 35.679L32.3222 36.267L33.0913 37.1156L34.3013 37.6431L35.3102 37.8622C35.3102 37.8622 35.5811 38.4728 35.5761 38.6025C35.5686 38.7309 36.0669 39.0091 36.0669 39.0091L36.0718 39.825L36.5251 39.2018L36.5076 38.644L36.178 37.4731L35.4238 37.2666L34.581 37.0576L34.1315 36.6497L35.2203 37.0438L36.2791 37.1344L36.4714 37.5713L37.0832 38.1568L37.1856 38.7183L37.283 39.3654L37.5103 39.0331L37.6252 38.396L37.4566 37.9944C37.6164 38.0787 37.7637 38.1454 37.7637 38.1454L37.8636 38.7498L38.0809 38.6314L38.192 38.0359L37.5752 37.6217L37.3854 37.0992L37.258 36.1511L36.811 35.7017L36.2604 35.6337L35.5811 35.6463H34.6459L33.5583 35.5644L33.3723 35.3265L35.0567 35.0004L37.4091 33.7577L37.5103 33.4467L38.2108 33.1018L39.0861 31.1075L39.3682 31.7911L40.4883 32.398L41.4472 32.7857L41.6458 32.1524L43.1441 30.0348L44.4852 28.5541L46.9325 27.0798L48.6094 25.6999L50.1377 23.8428L50.6971 22.7538L51.0205 22.1684L51.3489 21.4973L51.2403 21.107L51.3152 20.9836L51.47 20.7318L51.4975 20.1073L51.5 20.0469Z" fill="#8B7503"/>
</g>
</svg>
