<svg width="64" height="64" viewBox="0 0 64 64" fill="none" xmlns="http://www.w3.org/2000/svg">
<circle cx="32" cy="32" r="32" fill="#DDAAF5"/>
<mask id="mask0_1344_1349" style="mask-type:alpha" maskUnits="userSpaceOnUse" x="0" y="0" width="64" height="64">
<circle cx="32" cy="32" r="32" fill="#D9D9D9"/>
</mask>
<g mask="url(#mask0_1344_1349)">
<path d="M0.141457 35.2645L2.46219 33.8292L6.06159 32.5343L7.93901 31.1489L8.84678 29.5438L9.54021 27.3387L10.6765 25.3503L12.1376 24.1332L12.3708 24.5353L11.1521 25.9518C11.1521 25.9518 10.8304 27.8032 10.877 27.987C10.9236 28.1725 10.9998 29.7916 10.9998 29.7916L10.6159 32.4439L9.32212 33.8168L6.26196 35.4343L4.50842 36.2665L4.00013 36.5906L4.29282 37.7641L5.36148 38.5105L6.06578 38.7411L6.78407 38.9733L11.0666 38.1942L14.9667 37.3168L18.4439 36.8384L21.3056 37.3012L23.0698 38.0726C23.0698 38.0726 23.0698 38.0726 23.0682 38.0726L24.1641 38.551L25.6564 40.0782L25.9937 42.2209L25.4885 44.9044L27.4408 45.135L29.6699 46.2165L32.0248 46.7401L31.8398 45.4747L31.6999 45.2644V45.2628L30.0709 42.785L29.1009 41.3124L25.4714 34.6193L23.7802 29.6685L23.9356 22.9458L25.1512 18.9066L27.0444 17.0568L29.6729 15.5452L30.8061 15.2974L31.5647 14.4809L33.6118 13.7703L37.6549 12.9552L40.9471 12L42.2466 12.5314L43.4248 13.0192L44.8254 13.6487L45.3461 14.6975L44.9932 15.6403L44.516 15.5483L45.0508 15.8709L46.3425 16.7265L47.9575 18.0916L49.2368 19.6873L50 21.1662L49.9067 21.3875L48.9259 19.8135L48.3041 19.0842L48.015 19.1091L48.2808 19.7792L49.0534 21.8955L48.8342 22.0014L48.2109 20.2904L47.2425 18.5653L46.0891 17.2812L44.9124 16.4958L44.4026 16.2995L44.3171 17.1207L43.5166 18.1087L41.4787 18.7476L42.4704 22.0388L42.2544 26.9414L40.9611 35.1289L39.6398 41.3592L39.0818 43.5471L40.0829 48.6538L39.329 52.9719L37.2678 54.9276L32.9295 55.3609L28.7481 54.3105L26.2859 52.8317L24.9335 52.1211L23.2563 52.4748L17.7646 55.3593L13.7356 56.5L9.33549 55.6351L6.7519 53.3989L5.33723 49.8209L5.39972 47.1858L6.99967 44.9496L9.43762 43.4723L7.24559 43.0515L4.20049 42.3736L2.12395 41.6475L0.69218 39.846L0 37.8529L0.141457 35.2645Z" fill="#6C228E"/>
</g>
</svg>
