<svg width="64" height="64" viewBox="0 0 64 64" fill="none" xmlns="http://www.w3.org/2000/svg">
<circle cx="32" cy="32" r="32" fill="#FBB583"/>
<mask id="mask0_1344_1367" style="mask-type:alpha" maskUnits="userSpaceOnUse" x="0" y="0" width="64" height="64">
<circle cx="32" cy="32" r="32" fill="#D9D9D9"/>
</mask>
<g mask="url(#mask0_1344_1367)">
<path d="M38.8506 30.7526C38.2933 30.6577 36.993 29.2113 36.4125 28.5C33.9356 32.4914 28.8658 40.6876 28.4014 41.5412C27.937 42.3948 27.2791 44.8213 27.0082 45.9278C26.2342 46.0859 24.7558 46.4732 25.0345 46.7577C25.3828 47.1134 27.937 46.7577 28.4014 46.7577C28.8659 46.7577 28.8659 45.0979 29.5625 44.0309C30.2591 42.9639 31.5362 42.8454 31.8845 43.4381C32.1631 43.9124 32.9294 45.2955 33.2777 45.9278V50.7887C33.0842 50.7096 32.5347 50.599 31.8845 50.7887C31.2343 50.9783 30.8396 51.3419 30.7235 51.5H33.7421C34.5548 51.5 34.2065 50.6701 34.5548 50.1959C34.9032 49.7216 34.5548 45.5722 34.5548 45.0979C34.5548 44.6237 33.7421 44.3866 33.7421 44.0309C33.7421 43.7464 34.0517 42.7268 34.2065 42.2526C34.4 42.4502 34.9264 42.8454 35.4837 42.8454C36.1803 42.8454 37.9218 42.2526 38.8506 42.2526C39.5937 42.2526 40.476 42.6478 40.8244 42.8454C41.9854 42.6478 44.6557 42.2526 46.0489 42.2526H51.7379C51.854 42.6478 52.1791 43.5567 52.5507 44.0309C52.9222 44.5052 53.7117 46.0464 54.06 46.7577L52.0862 49.1289C52.9764 48.7337 54.8495 47.8959 55.221 47.7062C55.5925 47.5165 55.7628 46.4416 55.8015 45.9278L54.06 44.0309L54.7566 40.1186C55.6854 40 57.7985 39.7629 58.8202 39.7629C60.0973 39.7629 66.9473 39.5258 71.4753 39.7629C76.0033 40 83.8982 41.8969 85.7558 42.2526C87.2419 42.5371 88.8519 43.5567 89.4711 44.0309C89.5485 43.8333 89.5175 43.201 88.7745 42.2526C87.8456 41.067 80.7634 39.2887 77.6287 38.2216C74.4939 37.1546 64.0447 36.2062 63.3481 36.2062C62.6515 36.2062 59.9812 35.2577 58.8202 35.0206C57.6591 34.7835 53.9439 34.6649 53.2473 34.6649C52.69 34.6649 50.8478 33.8746 49.9964 33.4794C49.8029 33.5189 49.3462 33.5742 49.0676 33.4794C48.7193 33.3608 46.0489 32.1753 45.2362 32.0567C44.4235 31.9381 41.6371 31.1082 41.1727 30.7526C40.7083 30.3969 39.5472 30.8711 38.8506 30.7526Z" fill="#573014"/>
<path d="M7.30405 24.3559C6.84832 24.6327 4.91146 26.9315 4 28.0463C4.11393 28.3154 4.36458 28.9459 4.45573 29.3149C4.54688 29.684 5.02539 30.7757 5.25326 31.2755C5.36719 32.3134 5.64063 34.4815 5.82292 34.8506C6.00521 35.2196 7.87371 36.7727 8.78517 37.5031C9.08899 37.4262 9.6911 36.9889 9.9245 37.2724C10.4942 37.9644 12.3551 39.4252 13.2285 40.5015C13.6463 40.8091 14.5502 41.4472 14.8236 41.5395C15.1654 41.6548 15.849 41.0782 16.4187 41.0782C16.9883 41.0782 16.9883 39.8096 17.3301 39.8096C17.6719 39.8096 19.267 40.1556 19.7227 40.1556H21.4317C22.4571 40.7706 24.5762 42.07 24.8497 42.3467C25.1915 42.6927 27.3562 43.5 28.3816 43.5C29.407 43.5 30.5463 42.6927 31.3438 42.3467C31.9819 42.07 31.9135 41.3857 31.7996 41.0782C31.9135 40.9628 32.2325 40.6861 32.5971 40.5015C33.0528 40.2709 35.5591 37.734 36.015 37.2725L36.0151 37.2724C36.4708 36.8111 35.6733 36.4651 35.5593 36.0038C35.4682 35.6348 35.0656 34.4662 34.8758 33.928C34.8758 33.7742 34.9441 33.4205 35.2175 33.236C35.5593 33.0054 36.0151 31.7368 36.3569 31.2755C36.6303 30.9064 36.6987 29.8147 36.6987 29.3149C36.9265 29.1227 37.4051 28.4154 37.4962 27.1238C37.5873 25.8321 36.0151 23.8178 35.2175 22.972C35.1036 22.7029 34.8758 22.0494 34.8758 21.5881C34.8758 21.0115 34.0782 20.3195 33.6225 19.6276C33.1668 18.9356 29.9766 19.6276 29.6348 19.6276C29.2931 19.6276 26.4447 20.8962 25.8751 21.5881C25.4193 22.1417 25.0016 23.664 24.8497 24.3559L24.5079 23.8946L24.1661 23.664L23.4825 23.2027L22.7989 22.972V21.5881C22.4951 21.319 21.7963 20.6886 21.4317 20.3195C20.976 19.8582 19.9506 19.7429 19.267 19.6276C18.7201 19.5353 16.0769 19.2047 14.8236 19.0509C14.4058 19.0125 13.4108 18.9587 12.7728 19.0509C12.1348 19.1432 10.1524 20.7808 9.2409 21.5881V22.626C8.78517 23.0873 7.75978 24.0791 7.30405 24.3559Z" fill="#573014" stroke="#FBB583"/>
<path d="M23.5 23.6437C21.6059 23.1335 17.5953 22.0911 16.7059 22.0036C15.8165 21.9162 14.2765 23.425 13.6176 24.1904L13 26.3771C13.0412 27.434 13.2224 29.6354 13.6176 29.9852C14.1118 30.4226 15.9647 30.6413 16.7059 30.6413C17.4471 30.6413 18.5588 30.3133 19.1765 30.6413C19.6706 30.9037 20.5353 31.9898 20.9059 32.5" stroke="#FBB583"/>
</g>
</svg>
