<svg width="64" height="64" viewBox="0 0 64 64" fill="none" xmlns="http://www.w3.org/2000/svg">
<circle cx="32" cy="32" r="32" fill="#67DAD3"/>
<mask id="mask0_1344_1363" style="mask-type:alpha" maskUnits="userSpaceOnUse" x="0" y="0" width="64" height="64">
<circle cx="32" cy="32" r="32" fill="#D9D9D9"/>
</mask>
<g mask="url(#mask0_1344_1363)">
<path d="M63.3614 38.1071L61.5236 37.3951L59.8582 37.3604L60.3181 36.8991L61.1683 35.044L61.0923 34.421L60.8849 32.7647L58.084 29.2938L56.9053 27.8339L56.9012 27.8315L56.5706 27.4217L52.8209 23.2149L50.4862 21.1488L48.8598 20.8652L43.9766 20.5777L40.5083 19.6509L36.8306 17.2286L31.9515 15.8019L28.9062 15.5183L28.0027 15.4649L26.8815 13.6899L24.8979 13.5L23.3906 13.8781L22.8649 15.1667L16.7374 16.0871L14.4046 17.5147L14.3635 17.6278L13.9097 18.8672L14.688 20.2197L16.4581 21.0059L16.5977 22.288L19.0044 25.0681L21.3536 26.8529L17.7292 28.7728L15.608 30.7683L15.7476 31.4099L16.8093 30.9112L19.9942 29.2009L20.6307 29.5587L19.9942 31.2668L19.3576 33.1178L20.3453 33.2634L21.4788 31.2668L22.2571 30.0549L23.3167 30.6262L24.8034 30.4128L24.8465 30.3546L25.8671 31.6951L27.5674 33.1324L27.6331 34.0471L25.019 35.5425L22.1154 38.4649L21.3638 39.6147L20.4891 38.965L19.7806 37.0396L17.9407 36.2536L17.4479 36.6818L18.3658 37.1802L19.3576 38.4649L19.7108 40.1754L20.0476 41.245L17.8688 39.7495L16.3143 38.2516L14.9016 36.0426L14.0514 35.8981L13.6264 36.6818L14.1911 37.1802L15.6778 39.6753L16.9099 41.4826L13.9796 40.3183H12.423L12 40.8871L13.4128 41.9561L15.6778 42.5975L17.376 44.0244L19.144 44.8081L22.1893 44.8768L24.1668 44.1634L26.9267 43.0258L29.8262 41.3873L33.1528 39.1065L34.274 38.0634L34.7812 37.5922L36.6191 38.5352L42.7856 39.5719L41.4468 42.1774L40.8636 43.3111L41.5063 44.7031L38.2475 45.3066L37.3973 45.9482L37.4692 46.3739L38.2475 46.0185L40.5083 45.8034L42.2414 45.4392L43.1717 45.7041L41.7835 46.0911L38.5986 46.8748L34.9208 48.2977L32.3745 49.5095L32.4464 49.9137L31.8078 50.1511L29.1916 51.5036L27.1402 53.0735L27.5653 53.5L29.2615 52.503L32.3745 51.5036L37.3275 50.1511L41.0032 49.2268L39.5206 49.8659L36.8306 50.7927L36.808 50.8378L35.9804 52.2873L36.7607 52.718L38.1058 51.5764L43.3401 50.7199L51.9729 48.5829L56.0038 47.3007L59.4023 44.7362L63.0082 41.102L64 40.1026L63.3614 38.1071Z" fill="#097B74"/>
</g>
</svg>
