<svg width="64" height="64" viewBox="0 0 64 64" fill="none" xmlns="http://www.w3.org/2000/svg">
<circle cx="32" cy="32" r="32" fill="#D29964"/>
<mask id="mask0_1344_1381" style="mask-type:alpha" maskUnits="userSpaceOnUse" x="0" y="0" width="64" height="64">
<circle cx="32" cy="32" r="32" fill="#D9D9D9"/>
</mask>
<g mask="url(#mask0_1344_1381)">
<path d="M58.5 27.1897L57.4458 25.722L52.6636 24.9058L51.2057 25.151L47.136 26.9051L46.9906 26.5184L45.6814 26.7372L45.165 26.8228L43.4635 27.3132L43.0697 27.4678L42.2051 26.8179L41.1542 26.0297L36.4128 22.0493L32.7027 19.4182L31.6648 19.1878L28.5693 18.5L21.9418 18.8044L15.682 20.4581L11.0355 23.5779L10.5745 23.8856L4.80188 30.4955L4.7708 30.5564L3.1593 33.8621L0.838467 35.659L0 36.3089L0.119308 37.8409H0.451096C0.526278 38.4053 0.63089 39.1375 0.666847 39.2461C0.706073 39.3678 2.42381 40.3815 3.63163 41.0824L2.67062 43.0422L2.7932 45.2455L3.7673 46.1636L5.00778 46.1143L5.34611 47.1427L5.89529 47.0209V46.0797L7.19462 46.0254L7.53623 46.8383L7.96278 46.7758L7.90397 45.9975L8.32725 45.9794L9.4746 45.8609L9.7868 46.5306H10.2722V45.5038L11.0028 44.3273L10.0417 43.4108L9.7868 43.164L9.70667 42.7164L10.7576 42.9204L15.682 43.6543L18.2366 43.3466L29.9667 43.1047L34.5283 42.2474L37.4097 41.5613L37.1417 42.5519L36.4128 46.0419L36.6105 46.0945L36.2297 47.3879L36.5942 47.6331L37.1826 46.2525L37.6304 46.3743L37.2626 47.6939L37.6876 47.8766L38.2743 46.5503L38.781 46.6886L38.4182 47.8766L38.7826 47.9375L39.2664 46.8218L39.997 47.0209L40.1522 46.9222L39.997 48L40.4252 47.7548L40.654 46.6046L41.1542 46.2871L41.2571 46.0057L43.3933 40.1281L43.6466 42.5519L44.4965 45.0612L44.8283 45.0546L45.1045 46.1636L45.652 46.1028L45.6063 45.0349L46.3041 45.0168L46.564 45.9794L46.9285 45.8576V45.0003L47.7048 44.25L47.9614 45.2455L48.3275 45.0003L48.0938 43.8748L48.4485 43.5309L48.6315 40.3486L47.9614 36.6775L47.4744 36.1888L45.7975 35.8828L45.9576 35.6985L45.5932 35.4648L50.8788 33.4935L51.1681 33.2944L51.6698 32.9423L51.5784 32.5326L53.8779 31.7608L56.797 30.5366L57.4458 29.8027L57.503 28.5259L58.2565 28.6591L58.5 27.1897Z" fill="#4D2C0E"/>
</g>
</svg>
