<svg width="64" height="64" viewBox="0 0 64 64" fill="none" xmlns="http://www.w3.org/2000/svg">
<circle cx="32" cy="32" r="32" fill="#B2DBA3"/>
<mask id="mask0_1344_1345" style="mask-type:alpha" maskUnits="userSpaceOnUse" x="0" y="0" width="64" height="64">
<circle cx="32" cy="32" r="32" fill="#D9D9D9"/>
</mask>
<g mask="url(#mask0_1344_1345)">
<path d="M46.5758 28.3782C46.7384 28.4119 46.8268 28.4447 46.8268 28.4447C46.8268 28.4447 46.8034 28.4422 46.76 28.4377C46.7159 28.4338 46.6514 28.4311 46.5698 28.4272C46.406 28.422 46.1726 28.4242 45.8988 28.4582C45.8304 28.4668 45.7589 28.4755 45.6863 28.4914C45.6137 28.504 45.5385 28.5179 45.4627 28.5384C45.3856 28.5548 45.3093 28.5784 45.2316 28.604C45.1534 28.627 45.0759 28.6584 44.9975 28.6889C44.84 28.7504 44.6869 28.8342 44.5363 28.9244C44.46 28.9686 44.3911 29.0251 44.3177 29.0748C44.2526 29.1214 44.1774 29.1914 44.1078 29.2485L43.8927 29.4258C43.8224 29.4859 43.7603 29.5492 43.6941 29.6102C43.6296 29.6722 43.5647 29.7323 43.4992 29.7913C43.4375 29.8546 43.3763 29.9175 43.3164 29.979C43.2561 30.041 43.1974 30.1018 43.1399 30.161C43.0837 30.2225 43.0292 30.2829 42.9766 30.3414C42.8687 30.4576 42.7722 30.5721 42.6824 30.6774C42.5914 30.7819 42.5132 30.8819 42.4413 30.9691C42.3692 31.0561 42.3105 31.1349 42.2601 31.1987C42.1611 31.3279 42.1047 31.4019 42.1047 31.4019C42.1047 31.4019 42.1142 31.3812 42.1335 31.3415C42.1525 31.3028 42.1775 31.2431 42.2172 31.1723C42.2567 31.1008 42.3005 31.0117 42.3611 30.9156C42.4198 30.8186 42.4842 30.707 42.5652 30.5924C42.6436 30.4762 42.7283 30.3494 42.8295 30.2241C42.8784 30.1603 42.9292 30.0943 42.9807 30.0277C43.0334 29.9612 43.0932 29.8984 43.1512 29.8316C43.2092 29.7656 43.2686 29.6984 43.3292 29.6303C43.3932 29.5649 43.4598 29.4998 43.5269 29.4346C43.5948 29.3702 43.6612 29.3014 43.7308 29.2392L43.9438 29.0588C44.0185 28.9989 44.0804 28.9417 44.1663 28.8802C44.2475 28.8267 44.3235 28.7673 44.4073 28.7201C44.5723 28.6222 44.7456 28.5447 44.9177 28.4846C45.0045 28.4564 45.0875 28.4247 45.1738 28.4078C45.2585 28.3867 45.3425 28.3682 45.4244 28.3568C45.5061 28.3422 45.5863 28.3318 45.6638 28.3268C45.7418 28.3186 45.8169 28.3177 45.8886 28.3161C46.1763 28.3108 46.4136 28.3452 46.5758 28.3782ZM21.7785 30.952C21.756 31.0156 21.7321 31.0798 21.7137 31.1456C21.6908 31.2101 21.675 31.2764 21.6567 31.3413C21.6376 31.406 21.6242 31.4704 21.6096 31.5333C21.5936 31.5957 21.585 31.6574 21.5731 31.7158C21.5611 31.7743 21.553 31.8301 21.546 31.8823C21.5404 31.9344 21.5288 31.9822 21.5247 32.0255C21.5214 32.0683 21.5161 32.1064 21.5124 32.138C21.504 32.2009 21.4968 32.238 21.4968 32.238C21.4968 32.238 21.4829 32.2046 21.4618 32.1431C21.4407 32.0818 21.4128 31.9927 21.4003 31.8825C21.3913 31.8274 21.3827 31.767 21.3841 31.7035C21.3838 31.6397 21.3778 31.5711 21.3885 31.5023C21.3968 31.4331 21.3984 31.3598 21.417 31.2885C21.4307 31.216 21.4476 31.1431 21.4715 31.0723C21.4929 31.0008 21.5195 30.9309 21.5497 30.8637C21.5757 30.7951 21.6154 30.7336 21.6465 30.6712C21.7167 30.5505 21.7917 30.4434 21.8671 30.3603C21.9388 30.2751 22.0095 30.2129 22.0601 30.1717C22.1111 30.1309 22.1441 30.1118 22.1441 30.1118C22.1441 30.1118 22.077 30.2446 21.9891 30.4368C21.9678 30.4849 21.9448 30.537 21.92 30.5919C21.897 30.6471 21.8724 30.7054 21.8476 30.7655C21.8251 30.8261 21.7996 30.8878 21.7785 30.952ZM27.1998 37.7619C27.3028 37.7829 27.4042 37.8036 27.5019 37.8236C27.6003 37.8428 27.6949 37.8724 27.7847 37.8945C27.8745 37.9173 27.9582 37.9434 28.036 37.9655C28.3438 38.0603 28.5424 38.1459 28.5424 38.1459C28.5424 38.1459 28.3255 38.138 28.007 38.1004C27.8471 38.0858 27.6648 38.0605 27.4666 38.0357C27.3673 38.0234 27.2648 38.0102 27.1606 37.9972C27.0514 37.9797 26.9641 37.9669 26.8644 37.9701C26.7665 37.9728 26.6662 37.979 26.5679 37.9947C26.47 38.0106 26.3728 38.0289 26.28 38.0519C26.0946 38.0997 25.9243 38.1578 25.7856 38.2218C25.6473 38.2869 25.541 38.3575 25.4828 38.4236C25.4531 38.4568 25.4369 38.4871 25.4267 38.509C25.4183 38.5327 25.4144 38.5452 25.4144 38.5452C25.4144 38.5452 25.4139 38.5322 25.412 38.5072C25.4144 38.4819 25.4174 38.4416 25.4385 38.3969C25.4777 38.3058 25.5721 38.194 25.7078 38.0967C25.8429 37.9974 26.0166 37.9063 26.2141 37.8391C26.3129 37.8054 26.4171 37.7749 26.5259 37.7565C26.6352 37.7375 26.7479 37.7218 26.8637 37.723C26.978 37.7216 27.1022 37.743 27.1998 37.7619ZM46.2684 23.2921C46.0893 23.2703 45.8814 23.2395 45.6592 23.2022C45.5485 23.1821 45.4339 23.1641 45.3177 23.1411C45.2021 23.1186 45.085 23.096 44.9676 23.0732C44.8509 23.0486 44.7342 23.0243 44.6198 23.0001C44.505 22.9794 44.3938 22.9532 44.2848 22.9354C44.0681 22.8979 43.8649 22.8712 43.6886 22.858C43.6006 22.8537 43.5194 22.8482 43.4475 22.8477C43.3744 22.8452 43.3123 22.8482 43.2596 22.8477C43.1531 22.8516 43.093 22.8539 43.093 22.8539C43.093 22.8539 43.1074 22.8487 43.1338 22.8391C43.1608 22.8298 43.1993 22.8136 43.2496 22.7988C43.3011 22.7856 43.3649 22.7644 43.438 22.7523C43.5115 22.7361 43.5944 22.7236 43.6865 22.7145C43.8702 22.6951 44.0869 22.6954 44.3154 22.7179C44.5449 22.7373 44.7843 22.7833 45.0191 22.83C45.2527 22.8796 45.4893 22.9325 45.7053 22.989C45.9234 23.045 46.1262 23.1013 46.2983 23.1541C46.6438 23.2575 46.8697 23.3475 46.8697 23.3475C46.8697 23.3475 46.6259 23.3379 46.2684 23.2921ZM46.5294 22.3542C46.5006 22.3248 46.4698 22.2929 46.4392 22.258C46.406 22.2259 46.3703 22.1925 46.3334 22.1574C46.2983 22.1218 46.2621 22.0854 46.2271 22.0467C46.1942 22.0066 46.1522 21.9743 46.1139 21.9383C46.0761 21.9018 46.0383 21.8658 46.0023 21.8282C45.9643 21.7932 45.9239 21.7631 45.8877 21.7296C45.8503 21.6977 45.8174 21.662 45.7796 21.6369C45.7436 21.6096 45.7107 21.5813 45.6791 21.5549C45.6462 21.531 45.6163 21.5091 45.5889 21.4898C45.5617 21.4693 45.5385 21.4522 45.5181 21.4394C45.4773 21.4107 45.4506 21.3957 45.4506 21.3957C45.4506 21.3957 45.4794 21.39 45.5311 21.3921C45.558 21.3925 45.5907 21.3939 45.6251 21.4016C45.6606 21.4085 45.7021 21.4139 45.7439 21.4276C45.7858 21.4419 45.8309 21.4577 45.8782 21.477C45.9271 21.4943 45.9714 21.5233 46.019 21.5513C46.0654 21.5802 46.1162 21.6087 46.1608 21.6442C46.2048 21.6811 46.2482 21.7205 46.2911 21.7597C46.332 21.8007 46.3777 21.8378 46.4099 21.8847C46.4452 21.9292 46.4779 21.9745 46.5085 22.0184C46.5398 22.0626 46.5695 22.1054 46.5939 22.1476C46.615 22.192 46.6333 22.235 46.6503 22.2745C46.7178 22.4323 46.741 22.5448 46.741 22.5448C46.741 22.5448 46.6429 22.4731 46.5294 22.3542ZM42.1161 20.5694C42.1114 20.542 42.1072 20.5095 42.1096 20.4751C42.111 20.4407 42.1165 20.4042 42.1263 20.3689C42.1367 20.3338 42.1488 20.299 42.1664 20.2694C42.1831 20.2391 42.1998 20.2115 42.22 20.1913C42.2583 20.1491 42.2919 20.1282 42.2919 20.1282C42.2919 20.1282 42.2952 20.1696 42.2864 20.2209C42.2817 20.2466 42.2787 20.2764 42.2715 20.3072C42.2641 20.3373 42.2567 20.3694 42.2485 20.4015C42.2376 20.4325 42.2309 20.4646 42.2195 20.4937C42.2091 20.5236 42.1994 20.5514 42.188 20.5755C42.1692 20.6236 42.1497 20.6591 42.1497 20.6591C42.1497 20.6591 42.1265 20.6252 42.1161 20.5694ZM46.5222 20.2762C46.5744 20.2881 46.6361 20.3031 46.6985 20.3275C46.7289 20.3407 46.7623 20.3525 46.7937 20.3676C46.8268 20.3812 46.8565 20.4004 46.8881 20.417C46.9192 20.4354 46.9493 20.4539 46.9799 20.4721C47.0087 20.491 47.0352 20.5145 47.0616 20.5347C47.0876 20.5548 47.1124 20.5764 47.1349 20.5962C47.1591 20.6147 47.1769 20.6384 47.1948 20.658C47.2662 20.7377 47.3045 20.7974 47.3045 20.7974C47.3045 20.7974 47.2365 20.7678 47.1486 20.7133C47.1259 20.7003 47.1041 20.6835 47.0774 20.67C47.0516 20.6559 47.0245 20.6413 46.9973 20.6245C46.9426 20.5908 46.8851 20.5562 46.8245 20.5247C46.7957 20.5079 46.7677 20.4883 46.7373 20.4742C46.708 20.4596 46.6797 20.4423 46.6514 20.427C46.5955 20.3965 46.5431 20.3678 46.4974 20.3434C46.406 20.2956 46.3429 20.261 46.3429 20.261C46.3429 20.261 46.416 20.255 46.5222 20.2762ZM44.6175 19.5804C44.5915 19.5772 44.5648 19.5704 44.5347 19.5679C44.5054 19.5644 44.4746 19.5619 44.443 19.5562C44.3795 19.5458 44.3124 19.5364 44.2444 19.5303C44.211 19.5259 44.1774 19.5182 44.1442 19.5168C44.1106 19.515 44.0781 19.5095 44.0461 19.5061C43.9825 19.4995 43.9224 19.4931 43.8711 19.4879C43.7681 19.4788 43.6958 19.4711 43.6958 19.4711C43.6958 19.4711 43.7605 19.4376 43.867 19.4168C43.9203 19.4075 43.9825 19.3979 44.05 19.397C44.0834 19.3973 44.1185 19.3954 44.1542 19.3973C44.1892 19.3973 44.2245 19.4034 44.2607 19.4066C44.2959 19.4121 44.3312 19.4175 44.366 19.4225C44.4006 19.4289 44.434 19.4408 44.4662 19.4492C44.4985 19.4576 44.5296 19.4683 44.5586 19.4779C44.5883 19.4859 44.6138 19.5007 44.6381 19.5118C44.7353 19.5583 44.794 19.5986 44.794 19.5986C44.794 19.5986 44.72 19.5972 44.6175 19.5804ZM47.7418 6.17816C47.4729 6.64076 47.6435 7.17214 48.0423 7.48715C48.4404 7.80192 48.796 7.98415 48.796 7.98415C48.796 7.98415 48.999 8.70959 49.1995 9.05648C49.3995 9.4036 50.0257 9.502 50.0257 9.502L50.3764 10.5031C50.7971 11.0738 51.5911 11.3251 51.5911 11.3251C51.5911 11.3251 51.7715 11.795 52.3702 12.4566C52.969 13.1183 53.3143 13.3618 53.3143 13.3618C53.3143 13.3618 53.4423 13.7604 53.7476 14.2501C54.0534 14.7396 54.4413 15.1159 54.4413 15.1159C54.4413 15.1159 54.2457 15.5265 54.1455 16.1417C54.0453 16.7565 54.1024 17.5853 54.1024 17.5853C54.1024 17.5853 53.5759 18.4484 53.4956 18.9406C53.4156 19.4323 52.97 19.8038 52.97 19.8038C52.97 19.8038 52.2656 20.576 52.08 20.9251C51.8946 21.2745 51.1256 21.6579 51.1256 21.6579C51.1256 21.6579 50.5342 22.1326 49.8999 22.4742C49.2661 22.8159 48.8524 23.3816 48.8524 23.3816C48.8524 23.3816 47.7172 23.6445 47.2994 23.4525C46.8809 23.2605 46.8459 22.6874 46.8459 22.6874C46.8459 22.6874 47.3669 22.6432 47.585 22.4886C47.8029 22.3334 48.1237 21.9426 48.0485 21.6153C47.9734 21.2882 47.4379 20.6361 47.4379 20.6361C47.4379 20.6361 47.6228 20.2872 48.039 20.1002C48.4555 19.9134 48.558 19.6772 48.1917 19.5565C47.8263 19.4362 47.4957 19.8886 47.1628 19.9621C46.8289 20.0359 46.3081 20.0801 46.3081 20.0801C46.3081 20.0801 45.0003 19.433 44.3414 19.1401C43.6823 18.8472 43.0515 17.9912 42.7608 18.1976C42.4706 18.404 42.733 18.7609 42.9636 18.9233C43.1944 19.0857 43.467 19.3806 43.467 19.3806C43.467 19.3806 42.2592 19.6954 42.1362 20.0544C42.1362 20.0544 41.5098 19.956 41.3345 20.2436C41.1598 20.5316 41.9511 20.4038 41.9634 20.7213C41.9757 21.0383 42.1161 21.7542 42.3789 22.1109C42.642 22.4676 42.8949 22.8858 42.8949 22.8858C42.8949 22.8858 40.2441 22.5949 39.327 22.7029C38.4101 22.8111 36.223 23.2238 35.2131 23.5065C34.2037 23.7889 32.7377 24.5043 31.1042 25.0674C29.4704 25.6302 28.235 26.508 27.3207 26.9948C26.4062 27.4817 24.975 28.77 24.3938 29.1832C23.8124 29.5961 23.3414 29.3328 22.8529 29.5713C22.3643 29.81 22.3643 29.81 22.3643 29.81C22.3643 29.81 22.0687 29.2588 21.7105 28.698C21.3525 28.1373 21.0896 27.7803 20.9317 27.5665C20.7739 27.3521 20.0974 27.5615 19.639 27.6152C19.1805 27.6692 18.5766 27.8264 18.0052 28.178C17.4343 28.5299 17.4363 28.9085 17.2384 28.9404C17.0406 28.9725 16.8099 28.8101 16.7877 28.5543C16.7652 28.2983 16.4072 27.7375 16.1991 27.8309C15.991 27.9245 15.9611 28.109 16.0986 28.4459C16.2364 28.7828 16.2364 28.7828 16.2364 28.7828L16.3967 29.3756C16.3967 29.3756 15.7502 29.4 15.3217 29.2695C14.8934 29.1392 14.4426 28.7529 14.1517 28.9595C13.861 29.1659 14.4048 29.3775 14.6978 29.5499C14.9911 29.7223 15.8578 29.9216 15.8578 29.9216C15.8578 29.9216 15.9956 30.2585 15.5896 30.3838C15.1836 30.5093 14.8405 30.6443 14.4145 30.8928C13.9886 31.1411 13.8856 31.3771 14.0535 31.5297C14.2215 31.6823 14.4394 31.5274 14.7201 31.3823C15.0008 31.2372 15.9678 30.8218 16.2081 30.9227C16.2081 30.9227 15.8901 31.6925 15.8921 32.0715C15.8949 32.4501 16.2828 32.8266 16.5536 32.743C16.8241 32.6596 16.6464 32.5683 16.5615 32.3027C16.4761 32.0369 16.5487 31.9854 16.6617 31.6877C16.7744 31.39 16.8772 31.1541 16.8772 31.1541C16.8772 31.1541 17.2779 31.8479 17.5185 31.9488C17.7588 32.0497 18.1546 31.9859 18.2576 31.7495C18.3604 31.5135 17.9744 31.516 17.7966 31.4251C17.6187 31.334 17.7092 30.7805 17.7092 30.7805C17.7092 30.7805 18.2402 30.6748 18.6562 30.4878C19.0719 30.3013 19.4455 29.9815 19.4455 29.9815C19.4455 29.9815 19.4387 29.9581 19.4302 29.9152C19.4199 29.8724 19.4146 29.8107 19.4153 29.7357C19.4169 29.6615 19.4281 29.5747 19.4499 29.4845C19.4719 29.3941 19.506 29.3009 19.5464 29.2112C19.5891 29.1226 19.6373 29.0365 19.6902 28.9611C19.7424 28.8855 19.7972 28.819 19.848 28.7652C19.9482 28.6573 20.0347 28.6026 20.0347 28.6026C20.0347 28.6026 19.9988 28.6957 19.9385 28.8247C19.8786 28.9513 19.7993 29.1201 19.7195 29.2886C19.6814 29.3725 19.6436 29.4558 19.6104 29.5353C19.596 29.5752 19.5754 29.613 19.5631 29.6501C19.5487 29.6872 19.5352 29.7225 19.523 29.7549C19.5007 29.8207 19.4789 29.877 19.468 29.9173C19.455 29.9576 19.4455 29.9815 19.4455 29.9815C19.4455 29.9815 19.245 31.2112 19.425 31.6811C19.6053 32.1508 20.1088 32.6086 20.1088 32.6086C20.1088 32.6086 19.5575 32.8371 19.1114 33.2083C18.6655 33.5798 17.9665 33.5329 17.4354 33.6386C16.9041 33.7443 15.5486 33.7832 14.9249 34.0634C14.3009 34.3438 13.742 35.0125 13.2935 35.005C13.2935 35.005 12.7499 34.7934 11.9057 34.8499C11.0614 34.9061 11.1668 35.0492 10.5849 35.4619C10.004 35.8751 9.96617 36.4998 9.7808 36.849C9.59497 37.1982 8.97367 37.8574 8.70548 38.32C8.43729 38.7821 8.5976 39.3748 8.23429 39.633C7.87075 39.8911 7.57982 40.0977 7.50233 40.9685C7.42438 41.8392 7.86518 42.287 7.86518 42.287C7.86518 42.287 7.27845 43.519 7.04297 44.1757C6.80749 44.8326 7.60372 45.4624 7.88699 45.6961C8.17003 45.9298 8.72358 46.0801 9.12935 45.9546C9.53535 45.8293 10.4399 45.4041 10.826 45.4016C11.2118 45.3993 11.7428 45.2936 12.3367 45.1979C12.9304 45.1023 13.2009 45.0187 13.7946 44.9226C14.3886 44.8269 15.7741 44.6035 16.3452 44.2518C16.9167 43.9003 18.0291 43.3815 18.3901 42.7444C18.7511 42.1075 19.6956 41.4361 19.9737 40.9122C20.2521 40.3886 21.1869 39.7786 21.4349 39.4394C21.6829 39.0998 22.0689 39.0976 22.2868 38.9427C22.5049 38.7878 22.8907 38.7855 23.6324 38.965C24.3736 39.1449 24.9675 39.049 25.2705 39.16C25.5737 39.2704 25.8995 39.6372 26.3178 39.8292C26.7358 40.0209 27.4026 39.8736 27.4026 39.8736C27.4026 39.8736 27.5 40.4567 27.8682 40.9559C28.2364 41.4554 28.5519 41.8836 28.5519 41.8836C28.5519 41.8836 28.3239 42.0998 27.8332 41.9595C27.3416 41.8192 27.1114 41.657 26.8711 41.5559C26.6305 41.4552 26.192 41.386 26.4549 41.7427C26.7182 42.0996 27.2616 42.3112 27.6374 42.3702C28.0132 42.4294 28.3789 42.5501 28.3789 42.5501C28.3789 42.5501 28.4141 43.1232 27.8729 43.2901C27.3314 43.4575 26.8855 43.8288 26.8453 44.0748C26.8052 44.3206 27.2534 44.3283 27.5444 44.1215C27.8348 43.9149 28.3234 43.6767 28.6041 43.5316C28.8849 43.3865 29.2482 43.1284 29.2482 43.1284C29.2482 43.1284 29.2695 43.7821 29.3482 44.0901C29.4658 44.5499 29.8671 44.8005 30.1147 44.9043C30.355 45.0052 30.5729 44.8504 30.2576 44.4221C30.0718 44.1702 30.0572 44.0755 30.0973 43.8295C30.1374 43.5835 30.323 43.2341 30.446 42.8751C30.5685 42.5162 30.9223 42.3194 30.8647 41.4905C30.8072 40.6614 30.7597 39.7711 30.4641 39.2201C30.1687 38.6691 29.9384 38.5065 29.6249 38.4573C29.3122 38.4081 28.8735 38.3393 28.8735 38.3393C28.8735 38.3393 30.1012 37.9015 30.2441 37.4198C30.3873 36.9374 30.4374 36.6301 30.4149 36.3741C30.4149 36.3741 31.9658 35.9247 33.3086 35.568C34.6517 35.2118 36.2003 34.3834 37.2726 34.1105C38.3447 33.8377 39.8434 33.3165 40.5401 32.9847C41.2363 32.6528 41.7855 32.0453 41.7855 32.0453C41.7855 32.0453 41.4994 33.0097 41.5143 33.7056C41.5291 34.4016 41.8244 34.9526 42.0678 35.4323C42.3103 35.9122 42.8264 36.6871 42.8264 36.6871C42.8264 36.6871 42.0875 36.8861 41.669 36.6941C41.2507 36.5021 40.9352 36.0741 40.8018 36.4946C40.6688 36.9153 41.2331 37.0039 41.4535 37.2278C41.6736 37.4517 42.3525 37.6216 42.3525 37.6216C42.3525 37.6216 41.814 38.1676 41.5433 38.2512C41.273 38.3348 40.1552 38.0958 40.2204 38.4844C40.2854 38.873 40.879 38.7773 41.192 38.8265C41.5054 38.8759 42.2645 38.5539 42.2645 38.5539C42.2645 38.5539 42.1543 39.2301 41.8636 39.4367C41.573 39.6431 40.7916 39.7096 40.8663 40.0367C40.9414 40.3637 41.6811 40.1649 42.0966 39.9779C42.5126 39.7911 43.154 39.0092 43.154 39.0092C43.154 39.0092 43.502 39.6315 43.5468 40.1433C43.5923 40.6548 43.3113 40.7999 43.251 41.1687C43.1909 41.5377 43.7319 41.3705 43.928 40.9598C44.1236 40.5491 44.1537 40.3646 44.1609 39.9244C44.1688 39.4841 43.8855 39.2502 44.0711 38.9012C44.2563 38.5518 44.7952 38.0059 44.7952 38.0059C44.7952 38.0059 45.3488 38.1562 45.8378 37.9177C46.3262 37.679 46.9201 37.5833 47.211 37.377C47.5013 37.1702 47.2806 36.9463 46.9577 36.9588C46.6343 36.9709 46.3538 37.116 46.0107 37.251C45.6673 37.3863 45.239 37.2558 45.239 37.2558C45.239 37.2558 45.2395 35.6792 45.1318 35.1576C45.0244 34.636 44.5586 33.5539 44.5586 33.5539C44.5586 33.5539 45.1172 32.8847 45.5005 32.5038C45.8842 32.1226 46.2698 32.1203 46.6832 31.5545C47.0971 30.9889 47.3351 30.7113 47.3628 30.1478C47.3901 29.5845 48.2223 29.2107 48.4926 29.1274C48.4926 29.1274 49.0366 29.3387 49.287 29.3784C49.5375 29.4178 49.7653 29.2014 49.7653 29.2014C49.7653 29.2014 50.1015 29.5064 50.4242 29.4943C50.7479 29.482 51.038 29.2754 51.038 29.2754C51.038 29.2754 51.519 29.4772 51.8621 29.3422C52.2058 29.2069 52.7143 28.8454 52.7143 28.8454C52.7143 28.8454 53.0903 28.9046 53.5689 28.7276C54.0473 28.5509 54.2429 28.1398 54.2429 28.1398C54.2429 28.1398 54.9315 28.2482 55.2851 28.0516C55.6385 27.855 55.8639 27.2597 55.8639 27.2597C55.8639 27.2597 56.3848 27.2155 56.7386 27.0189C57.0916 26.8221 57.3077 26.2884 57.3077 26.2884C57.3077 26.2884 57.806 25.9885 58.1169 25.6589C58.4271 25.3293 58.3925 24.7562 58.3925 24.7562C58.3925 24.7562 59.0593 24.6091 59.3374 24.085C59.6154 23.5611 59.3826 23.0199 59.3826 23.0199C59.3826 23.0199 60.0165 22.6783 60.1696 22.1348C60.3222 21.5911 59.8416 21.3893 59.8416 21.3893C59.8416 21.3893 60.3399 21.0894 60.3677 20.5263C60.3955 19.963 60.1325 19.6063 60.1325 19.6063C60.1325 19.6063 60.5685 19.2964 60.4907 18.5903C60.4135 17.8844 60.0255 17.5081 60.0255 17.5081C60.0255 17.5081 59.8223 16.7825 59.672 16.1281C59.5221 15.4737 58.7006 14.2093 58.7006 14.2093L57.8218 13.6925C57.8218 13.6925 57.2833 12.6621 56.8223 12.3371C56.3614 12.0123 55.7127 11.6579 55.7127 11.6579C55.7127 11.6579 55.322 10.9028 54.7357 10.5582C54.1492 10.2138 53.3454 10.024 53.3454 10.024C53.3454 10.024 52.7693 9.61817 52.1408 9.14076C51.5118 8.66358 50.8752 8.62645 50.8752 8.62645C50.8752 8.62645 50.8829 8.18618 50.4421 7.73838C50.001 7.29059 49.583 7.09857 49.583 7.09857C49.583 7.09857 49.3948 7.06919 49.2048 6.6608C49.0144 6.25241 48.0098 5.71601 47.7418 6.17816Z" fill="#2E5F1D"/>
</g>
</svg>
