<svg width="64" height="64" viewBox="0 0 64 64" fill="none" xmlns="http://www.w3.org/2000/svg">
<circle cx="32" cy="32" r="32" fill="#F7BEBE"/>
<mask id="mask0_1344_1377" style="mask-type:alpha" maskUnits="userSpaceOnUse" x="0" y="0" width="64" height="64">
<circle cx="32" cy="32" r="32" fill="#D9D9D9"/>
</mask>
<g mask="url(#mask0_1344_1377)">
<path d="M42.8585 43.6252L42.9158 42.8159L44.9015 40.6279L46.018 38.5635L46.1192 38.5672L46.7884 38.9847L47.0163 40.0475L48.2987 41.0136L49.4287 41.4078L50.221 42.5588L50.5928 43.7893L47.5295 44.1677L43.2998 43.9742L42.8585 43.6252ZM33.3507 40.4858L34.1991 40.1761L34.3758 39.3508L34.3917 39.2749L35.4168 37.2791L35.4997 36.8506L37.7889 37.7297L41.5774 38.3382L41.3129 38.8892L40.5437 40.7552L37.7243 41.4642L37.7572 41.8854L33.8785 40.6903L33.3507 40.4858ZM23.5954 36.422L23.6893 36.1857L23.5759 35.991H26.0601L29.2014 35.1548L30.6007 34.2181L31.1919 34.6674L31.1237 36.1857L31.315 37.9868L30.2899 38.8892L30.0729 39.2161L24.5218 37.0869L23.5954 36.422ZM64 45.9063L60.5394 44.2326L59.1218 44.1909L58.3916 41.6246L58.4355 41.3821L58.5379 40.7846L58.778 39.4047V38.768V38.1778V36.0351V35.6372L58.1039 32.3558L57.8809 31.5489L57.7236 30.9856L55.9891 24.7264L53.5853 21.3471L51.2388 19.2949L51.2339 19.2913L48.395 16.8094L45.3245 16.3123L45.0465 16.267L43.0121 15.9401H41.9199H41.3202H40.9253H40.022H36.8503H36.0897L33.6871 16.229L32.5901 16.8241L31.8428 17.2306L31.5905 17.3677L30.129 18.1611L29.4305 18.5383L28.019 19.2986L28.3042 17.5808L27.9836 12.8815L26.8939 11.0142L25.8736 10.56L25.7395 10.5L23.3687 11.0804L22.3436 13.2035L20.9332 14.9422L19.2669 16.3576L18.6904 17.8379L18.3027 18.4501L18.2418 18.5468L17.408 18.9338L16.9095 19.8802L16.8327 20.0259L15.8709 20.6075L14.14 21.5087L12.2177 22.5372L11.8703 23.5253L11.8338 23.633L12.1495 24.6677H12.1507L12.3457 25.3056L12.4018 25.3546L14.4606 27.1091L18.3064 28.8478L21.5744 30.5204L22.9201 30.906L24.1379 30.3281L24.2012 30.2314L27.0853 31.4215L27.3742 31.6554L26.3807 31.8721L24.2658 32.8369L22.1875 34.2793L22.023 34.125L20.2921 34.3822L18.755 34.6405L17.9858 35.7351L17.998 35.7866L18.0821 36.1343L17.0887 36.4428L14.5898 36.7012L11.8971 36.4428L11 39.7255L11.2535 39.7635V39.7622L15.487 40.3708H18.8196L20.9978 39.919L22.9835 40.6279L22.9567 40.6756H22.9555L22.151 42.0433L20.6139 44.0391L21.5098 44.2974L23.4967 42.8159L25.1642 41.3993L27.6631 41.8511L29.5207 42.4572V42.5588L30.0985 43.3314L30.8665 43.5897L30.6751 42.9445L30.6787 42.8992L31.3638 43.22L31.8928 44.1028L32.4682 44.2974L32.2951 43.6558L33.1106 44.0391L37.8523 45.7129L39.6112 46.1745L39.5198 47.7735L40.2244 47.9658L41.475 46.6642L42.0186 46.8075L46.825 47.1932L50.7988 47.6438L51.7178 47.5103L52.8478 51.2484L52.9124 55.1751L51.9519 57.0436L49.837 58.459L47.6575 58.2006L46.0558 57.4929L45.478 55.1115L45.7352 52.408L47.3369 51.7639L48.8752 51.9574L50.2844 53.4377L50.4782 54.9192L49.5164 56.271L48.3633 56.4632L47.5929 55.562L47.2736 54.4037L47.7209 53.8883L48.1695 53.9532L47.9135 54.5629L48.7789 55.5302L49.3567 55.24L49.7407 54.3707L48.7789 52.9234L47.2406 52.7288L46.2801 53.4058V55.6269L46.8554 57.1709L48.4901 57.7513L50.3161 57.5578L52.047 56.0126L52.5284 53.7915L51.8556 51.4737L49.6444 48.7702H46.5678L42.7232 50.3154L41.6651 55.4323L42.8195 58.5227L46.4727 61.1307L50.1247 62L52.9124 61.3229L56.9496 57.9435L57.247 57.6117L59.4496 55.1433L60.4114 52.2463V51.9084V51.497V50.4868V49.8318L60.409 49.822L60.2091 48.8645L60.1444 48.5511H60.1432L59.7312 46.5749L63.1041 47.6438L63.3747 47.1173L64 45.9063Z" fill="#951717"/>
</g>
</svg>
