<svg width="64" height="64" viewBox="0 0 64 64" fill="none" xmlns="http://www.w3.org/2000/svg">
<circle cx="32" cy="32" r="32" fill="#6DC59D"/>
<mask id="mask0_1344_1357" style="mask-type:alpha" maskUnits="userSpaceOnUse" x="0" y="0" width="64" height="64">
<circle cx="32" cy="32" r="32" fill="#004526"/>
</mask>
<g mask="url(#mask0_1344_1357)">
<path fill-rule="evenodd" clip-rule="evenodd" d="M43.7888 34.3885C43.2177 33.6277 43.119 32.2821 41.961 32.1625C40.8367 31.8588 39.7177 31.5347 38.5832 31.272L31.918 32.3573L31.1372 35.9512L41.9146 37.3574L44.7257 39.2329L52.0669 40.0136L55.5031 38.764C51.9421 37.614 48.2949 36.6982 44.8334 35.266C44.4079 35.07 44.1128 34.7114 43.7888 34.3885Z" fill="#DB0026"/>
<path d="M56.8827 38.6082C56.6421 38.2942 56.2539 38.169 55.9856 38.0482C55.723 37.9242 55.7608 37.6684 55.5413 37.594C55.317 37.522 54.9239 37.9799 54.6187 37.8848C54.3138 37.7847 54.3362 37.2146 54.0817 37.1304C53.8208 37.0483 53.3676 37.4757 53.1306 37.3996C52.8916 37.3305 52.8453 36.7315 52.6148 36.6555C52.3872 36.5859 51.9035 37.0117 51.6673 36.9385C51.4304 36.8588 51.4153 36.2757 51.1519 36.189C50.8898 36.1085 50.4292 36.5444 50.2008 36.4656C49.9642 36.3928 49.9415 35.8109 49.6903 35.7263C49.4362 35.6454 48.9708 36.0727 48.7363 35.9959C48.4949 35.9178 48.429 35.32 48.2091 35.2477C47.9844 35.1789 47.5462 35.5319 47.1893 35.5116C44.7143 35.2806 43.7677 33.7231 43.599 34.1839C43.434 34.6353 44.1152 35.7336 44.9712 36.1045C45.6541 36.4013 53.0261 38.4435 53.2196 38.5346C53.4078 38.6277 53.8732 38.8351 53.7074 39.1039C53.4513 39.4479 52.731 39.1079 52.5477 38.9559C52.3624 38.8017 52.4047 38.7456 52.2307 38.6989C51.8356 38.6053 51.6165 39.3255 51.1987 39.2291C50.8182 39.1437 50.845 38.3792 50.4589 38.2898C50.0325 38.1865 49.8395 38.9111 49.4338 38.8168C49.0973 38.7407 49.0513 37.962 48.69 37.875C48.2754 37.7745 48.0872 38.5012 47.6551 38.4004C47.2836 38.3134 47.3043 37.5537 46.9158 37.4602C46.5276 37.3683 46.2565 38.0726 45.8898 37.9893C45.522 37.9039 45.4683 37.128 45.1419 37.0507C44.8074 36.9763 44.5444 37.3708 44.0953 37.4293C44.0953 37.4293 42.8056 37.7782 40.7668 35.6474C38.7239 33.521 37.8861 33.1079 36.7232 33.9741C34.8251 35.3888 33.6463 34.4535 33.3024 34.033C32.8899 33.5507 33.3219 33.1079 33.3219 33.1079C33.3219 33.1079 33.9247 34.0391 34.6836 34.0554C35.9067 34.092 36.8289 32.4227 38.9247 32.393C41.5797 32.2975 42.2719 33.2409 42.9974 33.3161C43.6697 33.382 43.8941 33.2734 44.3591 33.003H44.3567C44.733 32.8692 45.0602 33.5967 45.4545 33.4503C45.8716 33.2929 45.5667 32.5597 46.0154 32.3906C46.4353 32.2401 46.7093 32.9774 47.1109 32.8277C47.5332 32.6732 47.2641 31.9197 47.6698 31.7729C48.0872 31.622 48.3311 32.3666 48.7644 32.2076C49.1997 32.0527 48.9188 31.3065 49.3147 31.1564C49.7236 31.0072 50.0191 31.7399 50.4207 31.5968C50.8012 31.461 50.5837 30.6806 50.9796 30.5387C51.3909 30.3911 51.6564 31.1263 52.0945 30.9653C52.4547 30.8396 52.2555 30.0585 52.629 29.917C53.0022 29.7775 53.3485 30.5017 53.737 30.3561C54.1012 30.2219 53.8883 29.4457 54.2756 29.3005C54.6861 29.1525 55.0028 29.8763 55.3905 29.7397C55.7747 29.6018 55.4832 28.9756 55.984 28.7271C55.984 28.7271 56.6774 28.499 56.6335 27.9899C56.6278 27.9045 56.4848 26.8163 55.343 26.5857C54.2447 26.3649 45.574 28.7641 45.4618 28.6259C44.6639 27.0481 43.6413 27.4868 43.4856 27.5218C43.3271 27.5625 42.3589 27.9744 41.2866 27.5625C39.1811 26.6089 37.5 29.0337 36.3469 28.7145C35.2848 28.416 34.4731 28.588 34.0276 28.7397C33.6199 28.8808 32.959 29.4119 31.5583 28.93C20.7321 25.232 12.2707 28.4648 12.2707 28.4648C7.50005 30.0593 6.88954 28.4648 6.88954 28.4648C6.88954 28.4648 5.31936 26.3312 16.374 23.7864C32.2627 20.1347 32.7423 14.092 32.5541 13.7097C32.2932 13.1555 32.1936 13.8085 31.6705 14.4092C31.2315 14.9085 30.721 14.6617 30.721 14.6617C30.221 14.4218 29.9011 14.9927 29.9011 14.9927C29.9011 14.9927 29.2581 15.9914 28.6895 15.4237C28.1428 14.8768 27.4172 16.111 27.1461 16.1598C26.8214 16.2167 26.6628 16.0581 26.2275 15.858C25.5747 15.5693 24.874 16.7592 24.5155 16.8433C23.9663 16.9694 23.5806 16.196 23.1087 16.5221C21.6966 17.498 21.4747 17.6334 21.0943 17.254C20.8138 16.9665 20.7719 16.6555 19.8289 17.559C19.0262 18.3288 18.6421 18.4732 18.3197 17.9836C17.9881 17.4907 18.0734 16.8177 16.6939 18.1422C16.0354 18.7745 15.6989 18.7867 15.3217 18.5024C15.0375 18.289 15.0396 17.2703 14.0502 18.1926C13.1536 19.0221 12.5024 19.3861 12.2488 18.6492C11.9683 17.8213 10.9115 18.8017 10.6672 19.0327C10.4136 19.2633 9.87055 19.8736 9.48969 19.2438C9.10924 18.6098 8.19795 19.5561 7.65613 20.1563C7.23788 20.6227 6.90011 20.2628 6.45869 19.9668C5.95751 19.6228 4.45644 21.719 4.32068 21.8442C4.18329 21.9638 4.07884 21.8442 3.73497 21.5527C3.20656 21.1046 1.78109 23.5949 1.55022 23.7571C1.55022 23.7571 1.45266 23.9722 1.06408 23.601C0.51129 23.0748 -2.4246 26.9407 -3.53263 31.315C-4.94997 36.9226 -2.69165 41.2233 -2.69165 41.2233C-2.69165 41.2233 -2.01326 41.2436 -1.72426 40.7853L-1.28488 39.7939C-0.928408 38.9676 -0.344316 39.2275 -0.344316 39.2275L-1.72873 43.3505C-1.94741 43.8933 -1.81531 44.6615 -1.33162 45.3877C-0.875973 46.1173 -0.561776 46.6105 -0.196364 46.9497C0.927512 48.0086 0.812482 46.7561 0.841748 46.6C0.973442 45.9294 1.71565 46.4442 2.29811 46.7655C3.35533 47.3592 3.23786 46.0481 3.46954 45.6208C3.6305 45.3146 4.15037 45.3007 4.71455 45.7737C5.15353 46.1409 5.59048 44.8969 5.59048 44.8969C6.13839 42.2456 4.85071 41.939 4.15444 41.9L2.74482 41.8357C2.74482 41.8357 2.83749 41.4323 2.98423 41.0545L3.04723 40.787C4.58448 36.9543 2.01521 36.2147 1.24659 36.2757C0.398702 36.3513 0.458045 35.8109 0.458045 35.8109C0.458045 35.8109 5.1015 34.8959 4.23573 39.8228C4.23573 39.8228 4.06502 40.6808 3.96218 41.1281L5.23848 41.2774C6.33634 41.4144 6.53144 42.7141 6.53144 42.7141C6.53144 42.7141 10.5705 43.7823 12.8613 43.3553C12.8613 43.3553 13.8852 43.1114 14.1693 42.4737C14.1693 42.4737 15.6529 38.9766 19.9842 38.829C19.9842 38.829 20.1366 39.2816 19.4444 39.5174C18.6152 39.7972 15.8505 40.0168 15.2761 43.1935V43.2061C15.2135 43.7274 15.3534 44.8376 16.4833 45.352C17.4466 45.7867 17.7856 47.5409 17.9856 48.0147C18.5465 49.3594 19.3859 48.074 19.3859 48.074C19.3859 48.074 19.9184 46.9883 20.3744 47.5905C21.1459 48.6059 21.5044 48.0944 21.6796 47.4478C21.8714 46.75 22.1507 46.4454 22.9583 47.2941C23.303 47.6625 23.9802 47.3779 24.0476 46.7476C24.1907 45.3597 25.1276 46.4629 25.2617 46.5166C25.4223 46.5776 26.4035 46.3568 25.8544 44.7916C25.8544 44.7916 25.1126 43.3 21.7682 42.6567C20.9837 42.5079 21.1085 41.9394 21.1085 41.9394L21.845 42.0431C22.0645 42.0789 24.0094 42.2948 24.2167 42.3278C32.3745 43.1329 38.5645 40.3645 38.7507 40.1672C45.0875 41.3819 53.7045 40.9679 55.3223 40.3848C56.9481 39.8114 57.0697 38.8615 56.8827 38.6082ZM43.7982 28.4913C43.9307 28.2778 44.0559 28.157 44.1709 28.0989C44.6627 27.8191 44.9765 28.6946 44.9168 28.7267C44.9139 28.7283 44.9025 28.732 44.8977 28.734C44.8969 28.7352 44.8968 28.7385 44.896 28.7397C44.8188 28.7771 43.8701 29.0463 43.7766 28.9845C43.5888 28.8544 43.7982 28.4913 43.7982 28.4913ZM40.1953 28.7682C40.1953 28.7682 40.3172 28.6137 40.5546 28.5352C40.7887 28.4498 41.1419 28.4356 41.6102 28.7373C42.1487 29.0797 42.1349 29.3472 42.1349 29.3472C42.1125 29.3574 42.0896 29.3664 42.0662 29.3741C41.676 29.5254 40.0745 29.7218 40.0745 29.7218C39.9832 29.5728 39.9453 29.3971 39.9673 29.2237C39.9892 29.0504 40.0697 28.8897 40.1953 28.7682ZM10.3282 21.0159C10.5973 21.2233 10.3396 22.4184 10.1478 22.2424L8.76497 21.5104C8.76497 21.5104 10.0526 20.8146 10.3282 21.0159ZM8.07926 21.7792C8.35119 21.9817 8.09633 23.1793 7.90367 23.0012L6.52453 22.268C6.52453 22.268 7.80612 21.5714 8.07926 21.7792ZM7.30129 24.1154C7.57443 24.3195 7.31836 25.5191 7.12326 25.3459L5.74209 24.6037C5.74209 24.6037 7.02652 23.9124 7.30129 24.1154ZM5.98515 27.2522L4.60236 26.5174C4.60236 26.5174 5.88841 25.8204 6.16115 26.0254C6.43755 26.2295 6.17335 27.4283 5.98515 27.2522ZM5.72502 29.6185L4.34588 28.8833C4.34588 28.8833 5.62909 28.1895 5.90264 28.39C6.17619 28.5925 5.92134 29.7864 5.72461 29.6181L5.72502 29.6185ZM5.69941 22.612C5.97377 22.8157 5.71485 24.008 5.52219 23.8384L4.13858 23.1012C4.13858 23.1012 5.42708 22.405 5.69941 22.612ZM4.49993 24.4334C4.77064 24.6367 4.51416 25.8294 4.32353 25.6598L2.94236 24.925C2.94236 24.925 4.22679 24.2268 4.49993 24.4334ZM2.03513 27.2908C2.03513 27.2908 3.32362 26.5914 3.59311 26.7984C3.86788 27.0009 3.60937 28.196 3.4163 28.0228L2.03513 27.2908ZM3.09356 30.2838L1.71565 29.5461C1.71565 29.5461 3.00089 28.854 3.27241 29.0581C3.54677 29.2614 3.28948 30.4554 3.09356 30.2838ZM2.11073 25.2629C2.38306 25.4622 2.12577 26.6589 1.9327 26.4861L0.556411 25.7489C0.556411 25.7489 1.83474 25.0567 2.11073 25.2629ZM0.868575 27.6727C1.14213 27.8752 0.885647 29.0772 0.688105 28.9003L-0.689811 28.1668C-0.689811 28.1668 0.595431 27.4759 0.868575 27.6727ZM-0.947104 30.5273C-0.947104 30.5273 0.338137 29.836 0.610469 30.0394C0.886052 30.2411 0.623883 31.4398 0.43447 31.2658L-0.947104 30.5273ZM1.51689 33.2275L0.136937 32.4918C0.136937 32.4918 1.42299 31.7952 1.69614 31.9998C1.96928 32.2047 1.70833 33.3982 1.51689 33.2275ZM3.49556 34.8317L2.11561 34.0989C2.11561 34.0989 3.40207 33.4023 3.67521 33.6044C3.94592 33.8053 3.68456 35.0086 3.49556 34.8317ZM4.1142 32.328L2.73344 31.5899C2.73344 31.5899 4.01949 30.8986 4.29263 31.0966C4.56578 31.3012 4.30686 32.4959 4.1142 32.328ZM5.9502 35.9121L4.57228 35.1773C4.57228 35.1773 5.85102 34.4824 6.12701 34.6861C6.39934 34.8914 6.14611 36.0809 5.9502 35.9121ZM6.61273 33.6056L5.23401 32.8712C5.23401 32.8712 6.51722 32.1799 6.78955 32.3841C7.06188 32.585 6.80824 33.7821 6.61273 33.6056ZM7.0696 31.426L5.69047 30.69C5.69047 30.69 6.97408 29.9987 7.24967 30.202C7.52322 30.4074 7.26186 31.5976 7.0696 31.426ZM9.00966 35.6336L7.63012 34.8943C7.63012 34.8943 8.91414 34.2042 9.18932 34.4047C9.46571 34.608 9.20395 35.808 9.00966 35.6336ZM9.60716 33.3372L8.22844 32.6041C8.22844 32.6041 9.51408 31.905 9.78723 32.112C10.0563 32.3092 9.7978 33.5088 9.60716 33.3372ZM10.1071 30.9047L8.72798 30.1695C8.72798 30.1695 10.0124 29.4802 10.2876 29.6803C10.5587 29.8844 10.2998 31.0783 10.1071 30.9047ZM12.0447 35.2029L10.6611 34.4677C10.6611 34.4677 11.9472 33.7719 12.2232 33.9745C12.4939 34.1839 12.2325 35.3802 12.0447 35.2029ZM12.5081 32.7468L11.1294 32.0079C11.1294 32.0079 12.4154 31.315 12.6874 31.5163C12.9613 31.7225 12.702 32.9127 12.5085 32.7464L12.5081 32.7468ZM12.9894 30.2248L11.6098 29.4888C11.6098 29.4888 12.8938 28.7962 13.1682 28.9979C13.4405 29.2065 13.1828 30.398 12.9894 30.2248ZM15.0656 34.2319L13.6848 33.5036C13.6848 33.5036 14.9705 32.8082 15.2404 33.0103C15.5176 33.2128 15.2587 34.4063 15.0656 34.2319ZM15.4436 31.8123L14.0604 31.0812C14.0604 31.0812 15.3452 30.387 15.6167 30.5871C15.8972 30.7925 15.6346 31.9925 15.4436 31.8123ZM15.9224 29.4416L14.5384 28.7104C14.5384 28.7104 15.8269 28.0118 16.0976 28.2131C16.3703 28.4193 16.1122 29.6189 15.9224 29.4416ZM18.036 33.7207L16.6557 32.9847C16.6557 32.9847 17.9377 32.2889 18.2136 32.4926C18.49 32.698 18.2299 33.8903 18.036 33.7207ZM18.4124 31.4618L17.0312 30.729C17.0312 30.729 18.3185 30.0284 18.5892 30.237C18.862 30.4346 18.6043 31.6363 18.4124 31.4618ZM18.8668 29.0516L17.484 28.318C17.484 28.318 18.7701 27.6158 19.0457 27.8252C19.3188 28.0297 19.0632 29.222 18.8668 29.0516ZM20.7793 33.7626L19.4022 33.0278C19.4022 33.0278 20.6858 32.33 20.9589 32.5382C21.2325 32.7391 20.9731 33.9342 20.7793 33.7626ZM21.2349 31.3374L19.8513 30.6042C19.8513 30.6042 21.1398 29.9048 21.4133 30.1121C21.684 30.3171 21.4255 31.5098 21.2349 31.3374ZM21.7519 28.9231L20.3704 28.1895C20.3704 28.1895 21.6568 27.4901 21.9304 27.6983C22.2059 27.9004 21.945 29.0976 21.7519 28.9231ZM23.6554 33.7626L22.2742 33.0241C22.2742 33.0241 23.5587 32.3304 23.8314 32.5386C24.1041 32.7391 23.8505 33.9342 23.6554 33.7626ZM24.0972 31.472L22.7193 30.7343C22.7193 30.7343 24.0021 30.0463 24.2749 30.2423C24.5488 30.4484 24.2911 31.6464 24.0972 31.472ZM24.6195 29.1273L23.2428 28.3933C23.2428 28.3933 24.5269 27.7003 24.8012 27.9004C25.0703 28.1037 24.8122 29.3005 24.6195 29.1273ZM26.3592 34.1087L24.978 33.3661C24.978 33.3661 26.2641 32.6777 26.5372 32.883C26.8132 33.0823 26.5555 34.2798 26.3592 34.1087ZM26.847 31.8871L25.467 31.1548C25.467 31.1548 26.7547 30.4602 27.0254 30.6636C27.3014 30.8705 27.0347 32.0628 26.847 31.8871ZM27.3741 29.6181L25.9905 28.8865C25.9905 28.8865 27.2778 28.1912 27.5526 28.3896C27.8245 28.5921 27.5619 29.7864 27.3741 29.6181ZM29.526 32.3666L28.1472 31.6391C28.1472 31.6391 29.4309 30.9421 29.7064 31.1418C29.9776 31.3475 29.719 32.5423 29.526 32.3666Z" fill="#004526"/>
</g>
</svg>
